<svg xmlns="http://www.w3.org/2000/svg" viewBox="0 0 160 160" role="img" aria-labelledby="title desc">
  <title id="title">Green Hills Supply</title>
  <desc id="desc">Green Hills Supply logo mark</desc>
  <defs>
    <linearGradient id="sky" x1="0" x2="1" y1="0" y2="1">
      <stop offset="0" stop-color="#0f766e"/>
      <stop offset="1" stop-color="#16a34a"/>
    </linearGradient>
    <linearGradient id="hill" x1="0" x2="1" y1="0" y2="1">
      <stop offset="0" stop-color="#84cc16"/>
      <stop offset="1" stop-color="#15803d"/>
    </linearGradient>
  </defs>
  <rect width="160" height="160" rx="34" fill="#f8fafc"/>
  <rect x="8" y="8" width="144" height="144" rx="28" fill="url(#sky)"/>
  <path d="M20 109c28-28 52-38 76-28 14 6 26 17 44 19v34H20z" fill="url(#hill)"/>
  <path d="M18 121c31-17 55-20 75-9 15 8 31 12 49 7v19H18z" fill="#365314" opacity=".45"/>
  <path d="M39 93c18-19 36-28 54-28 16 0 27 8 39 22" fill="none" stroke="#dcfce7" stroke-width="8" stroke-linecap="round"/>
  <text x="80" y="64" text-anchor="middle" font-family="Arial, Helvetica, sans-serif" font-size="31" font-weight="900" fill="#ecfccb">GH</text>
  <text x="80" y="143" text-anchor="middle" font-family="Arial, Helvetica, sans-serif" font-size="15" font-weight="900" fill="#ecfccb" letter-spacing=".8">SUPPLY</text>
</svg>
